<svg width="1024" height="1024" viewBox="0 0 1024 1024" fill="none" xmlns="http://www.w3.org/2000/svg">
<rect width="1024" height="1024" fill="#7832C9"/>
<g clip-path="url(#clip0_1337_12)">
<path d="M280.347 359.207C303.325 335.088 333.806 321 369.614 321C439.374 321 485.625 371.886 494.474 448.116C497.343 472.871 497.317 507.773 497.288 548.198C497.284 552.344 497.281 556.548 497.281 560.805V712.244H401.349V600.235C401.349 600.235 401.153 504.371 400.567 486.454C397.993 408.423 351.754 359.391 280.337 359.339C258.79 382.082 247.245 409.89 245.542 452.409C245.308 458.339 245.367 479.36 245.445 507.064C245.485 521.419 245.53 537.568 245.542 554.341C245.613 627.35 245.542 712.261 245.542 712.261H149.61V539.879C149.61 533.973 149.502 528.016 149.394 522.036C149.177 510.006 148.957 497.883 149.61 485.88C150.694 465.869 154.159 446.198 163.505 427.924C184.898 386.059 228.733 359.104 275.465 359.104C277.097 359.104 278.731 359.138 280.347 359.207Z" fill="white"/>
<path d="M875.927 556.657C876.58 544.654 876.36 532.53 876.144 520.502C876.035 514.521 875.927 508.564 875.927 502.658V330.276H779.995C779.995 330.276 779.924 415.187 779.995 488.195C780.007 504.968 780.052 521.116 780.092 535.47C780.17 563.176 780.229 584.196 779.995 590.127C778.293 632.647 766.747 660.454 745.2 683.199C673.785 683.145 627.547 634.113 624.971 556.083C624.385 538.166 624.137 493.706 624.137 442.212V330.203L528.276 330.293V481.732C528.276 485.989 528.272 490.192 528.27 494.339C528.24 534.764 528.215 569.665 531.084 594.421C539.914 670.652 586.165 721.537 655.924 721.537C691.734 721.537 722.214 707.448 745.193 683.33C746.808 683.399 748.44 683.433 750.073 683.433C796.804 683.433 840.639 656.478 862.033 614.613C871.379 596.338 874.843 576.668 875.927 556.657Z" fill="white"/>
</g>
<defs>
<clipPath id="clip0_1337_12">
<rect width="735" height="400.534" fill="white" transform="translate(145 321)"/>
</clipPath>
</defs>
</svg>
